<svg width="11" height="14" viewBox="0 0 11 14" fill="none" xmlns="http://www.w3.org/2000/svg">
<path d="M5.06895 0.287283C5.01529 0.29399 4.84761 0.317465 4.70006 0.337586C3.14736 0.542153 1.68856 1.49121 0.833404 2.85276C-0.35711 4.74416 -0.26321 7.23921 1.05809 9.00989C1.26937 9.29159 4.96499 13.6009 5.20644 13.8491C5.33053 13.9765 5.37412 14 5.48479 14C5.56863 14 5.64576 13.9732 5.69271 13.9329C5.76649 13.8658 9.49565 9.53975 9.79747 9.17086C10.6392 8.13796 11.0819 6.67246 10.9612 5.33774C10.8907 4.57648 10.7465 4.04998 10.4346 3.39603C9.65326 1.7662 8.15758 0.646114 6.36342 0.347648C6.07166 0.297344 5.25339 0.260455 5.06895 0.287283ZM6.47744 1.06866C7.75179 1.35036 8.85512 2.11497 9.55266 3.20488C9.81759 3.62072 10.0624 4.22101 10.1865 4.75758C10.2737 5.13318 10.3072 6.01516 10.2535 6.40753C10.1362 7.23921 9.80753 8.0273 9.31791 8.66447C9.05298 9.00989 5.52168 13.1113 5.48814 13.1113C5.44455 13.1113 1.68856 8.72819 1.50412 8.45991C1.17547 7.97699 0.903828 7.33311 0.769686 6.70599C0.682493 6.30021 0.685847 5.23378 0.773039 4.828C1.14193 3.12775 2.31568 1.78968 3.93209 1.22963C4.2205 1.12903 4.57933 1.04519 4.93481 0.99153C5.19303 0.954641 6.18233 1.00159 6.47744 1.06866Z" fill="#7F7F7F"/>
<path d="M5.18631 3.38261C3.97567 3.55365 3.09369 4.55301 3.09369 5.76699C3.09369 6.70264 3.59002 7.50078 4.43176 7.91327C4.804 8.09772 5.06558 8.15808 5.48813 8.15808C5.91068 8.15808 6.17226 8.09772 6.5445 7.91327C7.38624 7.50078 7.88257 6.70264 7.87922 5.76699C7.87922 5.34445 7.81885 5.08622 7.63776 4.71062C7.39966 4.23106 7.02406 3.85211 6.53779 3.6073C6.17226 3.42621 5.58874 3.32896 5.18631 3.38261ZM5.90732 4.10698C6.66188 4.30484 7.19844 4.99232 7.19844 5.76699C7.19844 6.71605 6.42713 7.47731 5.47136 7.47731C4.54578 7.47731 3.77781 6.69928 3.77781 5.76699C3.77781 5.00238 4.31103 4.31155 5.05552 4.11034C5.29698 4.04662 5.66251 4.04327 5.90732 4.10698Z" fill="#7F7F7F"/>
</svg>
