<svg width="13" height="12" viewBox="0 0 13 12" fill="none" xmlns="http://www.w3.org/2000/svg">
<path d="M3.17113 0.0367327C3.08436 0.076602 3.00696 0.158687 2.97413 0.245462C2.96006 0.282987 2.94833 0.451847 2.94833 0.625398V0.93732L2.26351 0.946701C1.59041 0.953736 1.57165 0.956081 1.3981 1.01706C0.910282 1.18826 0.570217 1.52598 0.399011 2.00911L0.333344 2.19673V6.47687V10.757L0.399011 10.9446C0.570217 11.4278 0.907937 11.7631 1.3981 11.9367L1.57634 12H6.32553H11.0747L11.2623 11.9343C11.7455 11.7631 12.0808 11.4254 12.2544 10.9352L12.3177 10.757V6.47687V2.19673L12.2544 2.01849C12.0808 1.52833 11.7455 1.19061 11.2623 1.0194C11.0771 0.956081 11.07 0.953736 10.3899 0.946701L9.70508 0.93732L9.69804 0.590219C9.69101 0.210283 9.67928 0.175104 9.52918 0.0648756C9.43772 -0.00313759 9.21726 -0.00313759 9.12579 0.0648756C8.9757 0.175104 8.96397 0.210283 8.95693 0.592564L8.9499 0.94201H6.32553H3.70116L3.69413 0.592564C3.68709 0.212628 3.67537 0.175104 3.52996 0.0672207C3.45022 0.00858879 3.26494 -0.00782776 3.17113 0.0367327ZM2.95302 1.94813C2.96006 2.22488 2.98116 2.27882 3.12188 2.38201C3.21335 2.45002 3.4338 2.45002 3.52527 2.38201C3.66598 2.27882 3.68709 2.22488 3.69413 1.94813L3.70351 1.6925H6.32553H8.94755L8.95693 1.94813C8.96397 2.22488 8.98508 2.27882 9.12579 2.38201C9.21726 2.45002 9.43772 2.45002 9.52918 2.38201C9.6699 2.27882 9.69101 2.22488 9.69804 1.94813L9.70742 1.69015L10.343 1.69719L10.9809 1.70423L11.1146 1.76989C11.2835 1.85198 11.4195 1.988 11.5016 2.15686C11.5672 2.29055 11.5672 2.29289 11.5743 2.83465L11.5813 3.3811H6.32788H1.07211V2.88156C1.07211 2.511 1.08149 2.35152 1.10494 2.26709C1.17764 2.03022 1.38168 1.8168 1.61856 1.73471C1.72409 1.69954 1.82729 1.69484 2.34325 1.6925H2.94364L2.95302 1.94813ZM11.5743 7.39622L11.5672 10.6632L11.5039 10.7922C11.4218 10.9587 11.2764 11.1041 11.1122 11.1862L10.9809 11.2495H6.32553H1.67015L1.54116 11.1862C1.37465 11.1041 1.22924 10.9587 1.14716 10.7945L1.08383 10.6632L1.0768 7.39622L1.07211 4.13159H6.32553H11.579L11.5743 7.39622Z" fill="#7F7F7F"/>
</svg>
