<svg width="20" height="21" viewBox="0 0 20 21" fill="none" xmlns="http://www.w3.org/2000/svg">
<path d="M9.1992 4.70703C6.99217 4.97656 4.85545 6.00391 2.49607 7.92188C1.86717 8.42969 0.222634 10.0273 0.0820086 10.2656C-0.0898665 10.5547 -0.035179 10.6602 0.69529 11.4063C3.3242 14.1055 6.01951 15.7227 8.71092 16.2305C9.24217 16.3281 10.7578 16.3281 11.289 16.2305C13.4492 15.8242 15.4844 14.7734 17.7148 12.9102C18.2539 12.457 19.7929 10.9375 19.9179 10.7344C20.0703 10.4805 20.0351 10.3828 19.5781 9.80859C18.8633 8.91406 17.9336 7.99609 17.0039 7.26953C15.1719 5.83984 13.2148 4.99219 11.1679 4.73828C10.7344 4.6875 9.53123 4.66406 9.1992 4.70703ZM10.8203 5.54297C12.6328 5.70703 14.4726 6.45703 16.2109 7.73828C17.0625 8.36328 18.039 9.28125 18.7422 10.1094C18.8984 10.293 19.0234 10.4609 19.0234 10.4805C19.0234 10.5313 18.0898 11.4531 17.6172 11.8711C15.1719 14.0352 12.8594 15.2266 10.6445 15.4648C7.96873 15.75 4.6992 14.1797 1.56248 11.0938L0.957009 10.5L1.56638 9.90234C3.60154 7.90625 5.61717 6.57422 7.5781 5.92578C8.71873 5.55078 9.67576 5.4375 10.8203 5.54297Z" fill="#029AAD"/>
<path d="M9.31641 7.23437C8.21484 7.48828 7.29688 8.26562 6.91016 9.26953C6.74219 9.70703 6.67969 10.0273 6.67969 10.5C6.67969 10.9727 6.74219 11.293 6.91016 11.7305C7.30469 12.7578 8.30078 13.5742 9.39453 13.7773C9.71094 13.8359 10.3594 13.8281 10.6641 13.7656C11.5273 13.582 12.2734 13.0742 12.7695 12.3359C13.1445 11.7734 13.3203 11.1875 13.3203 10.5C13.3203 9.80859 13.1445 9.22656 12.7656 8.66016C12.3438 8.02734 11.7578 7.58203 11.0234 7.33594C10.6797 7.21875 10.5938 7.20703 10.0977 7.19531C9.72656 7.18359 9.47656 7.19922 9.31641 7.23437ZM10.5273 8.05859C11.3711 8.23437 12.125 8.92969 12.3945 9.77734C12.4648 10 12.4805 10.1406 12.4805 10.5195C12.4766 10.9258 12.4609 11.0273 12.375 11.2734C12.2305 11.6797 12.0508 11.9609 11.7578 12.2578C11.4609 12.5547 11.1055 12.7734 10.7227 12.8945C10.5 12.9648 10.3594 12.9805 9.98047 12.9805C9.57422 12.9766 9.47266 12.9609 9.22656 12.875C8.81641 12.7266 8.53906 12.5508 8.22266 12.2383C7.46875 11.4883 7.28906 10.3477 7.77344 9.38281C8.28906 8.36328 9.40625 7.82422 10.5273 8.05859Z" fill="#029AAD"/>
</svg>
