<svg width="14" height="13" viewBox="0 0 14 13" fill="none" xmlns="http://www.w3.org/2000/svg">
<path d="M6.58624 0.212565C5.65754 0.300109 4.95163 0.497706 4.18063 0.885399C3.16432 1.39315 2.2231 2.25608 1.6048 3.24657C1.15673 3.96192 0.831305 4.88488 0.698634 5.81034C0.656079 6.10548 0.656079 7.09097 0.698634 7.38612C0.803769 8.12398 0.999022 8.7693 1.30442 9.38711C1.64736 10.0875 1.9853 10.5577 2.54101 11.1155C3.09423 11.6657 3.57234 12.0084 4.24571 12.3386C4.71632 12.5687 5.01921 12.6812 5.49733 12.8013C6.74895 13.1165 8.00557 13.0564 9.22715 12.6237C9.60263 12.4911 10.2485 12.166 10.5789 11.9459C11.9807 11.0104 12.962 9.58971 13.3199 7.97391C13.4025 7.59872 13.4451 7.24605 13.4626 6.81083C13.5002 5.7453 13.2799 4.7298 12.8043 3.77433C12.4939 3.14902 12.1459 2.65627 11.6578 2.15353C11.1221 1.59825 10.5814 1.20556 9.87799 0.857884C9.13703 0.492704 8.44614 0.295106 7.62508 0.220069C7.36975 0.197557 6.7915 0.192555 6.58624 0.212565ZM7.9505 1.06799C9.52253 1.33312 10.8492 2.18854 11.7329 3.5117C12.181 4.17953 12.4738 4.94491 12.6115 5.78532C12.6716 6.16801 12.6716 7.02844 12.6115 7.41113C12.3412 9.08196 11.425 10.4676 10.0031 11.3631C9.39486 11.7458 8.65891 12.0159 7.8754 12.1435C7.4899 12.2035 6.63129 12.2035 6.2483 12.141C4.60368 11.8733 3.24943 11.0004 2.35077 9.62472C1.93022 8.98191 1.64736 8.23153 1.51218 7.41113C1.45211 7.02844 1.45211 6.16801 1.51218 5.78532C1.71495 4.54221 2.24062 3.50419 3.10424 2.64627C4.06047 1.6933 5.26203 1.13302 6.61127 1.01046C6.88162 0.985448 7.65762 1.02046 7.9505 1.06799Z" fill="#7F7F7F"/>
<path d="M6.66142 4.67972V6.76075L7.92055 8.01887L9.17717 9.27449L9.46004 8.99185L9.7404 8.71171L8.60143 7.57365L7.46246 6.43559V4.51714V2.59619H7.06194H6.66142V4.67972Z" fill="#7F7F7F"/>
</svg>
