<svg width="20" height="21" viewBox="0 0 20 21" fill="none" xmlns="http://www.w3.org/2000/svg">
<g clip-path="url(#clip0_3499_4951)">
<path d="M15.8632 0.570301C15.789 0.605457 15.6913 0.687489 15.6483 0.746082C15.5507 0.874989 15.5468 0.999989 15.5976 2.41014L15.6327 3.32421L15.4413 3.17968C14.078 2.14452 12.4882 1.51952 10.8007 1.35546C9.85147 1.26171 8.57022 1.35546 7.71475 1.57421C5.53116 2.13671 3.67569 3.44139 2.41006 5.31249C1.34756 6.87889 0.792877 8.82421 0.874908 10.7148C0.906158 11.4687 1.04288 12.3867 1.15616 12.6172C1.35147 13.0078 1.9335 13.0234 2.13272 12.6445C2.20694 12.4961 2.19913 12.3437 2.07022 11.6523C1.95694 11.0312 1.94131 9.87499 2.04288 9.22655C2.30069 7.55858 3.04288 6.05077 4.19522 4.83983C4.3046 4.72655 4.56241 4.49218 4.76553 4.31639C7.58975 1.92186 11.6718 1.78124 14.6483 3.97655L14.9413 4.19139L14.746 4.19921C14.6405 4.20702 14.078 4.22655 13.4999 4.24999C12.3554 4.29296 12.3046 4.30468 12.1327 4.53514C12.0116 4.69921 12.0233 4.98436 12.1601 5.16014C12.3398 5.39452 12.3515 5.39452 14.289 5.32811C15.2499 5.29296 16.1171 5.2578 16.2226 5.24608C16.4687 5.22264 16.6249 5.12499 16.7187 4.93358C16.7929 4.77733 16.7929 4.7578 16.7226 2.86327C16.6796 1.80858 16.6288 0.906239 16.6093 0.851551C16.5663 0.746082 16.4335 0.61327 16.3007 0.542957C16.1796 0.480457 16.0155 0.48827 15.8632 0.570301Z" fill="#001529"/>
<path d="M18.0585 8.15233C17.9062 8.24608 17.8124 8.41796 17.8124 8.59374C17.8124 8.66405 17.8476 8.89843 17.8905 9.11327C18.1483 10.4258 18.0624 11.8164 17.6327 13.1133C16.9569 15.1758 15.496 16.8359 13.5351 17.7851C11.3163 18.8594 8.72256 18.8437 6.51162 17.7422C5.88662 17.4297 4.89834 16.75 5.0624 16.75C5.10147 16.7461 5.66787 16.6992 6.3124 16.6367C7.60928 16.5156 7.67959 16.5 7.82022 16.2422C7.96865 15.9687 7.83975 15.6055 7.54678 15.4883C7.41006 15.4336 7.25772 15.4414 5.48819 15.6016C3.3749 15.793 3.36709 15.793 3.22647 16.0664L3.14834 16.2187L3.31631 18.1328C3.4335 19.4453 3.50381 20.0898 3.54287 20.1797C3.621 20.3398 3.78897 20.4648 3.98037 20.4883C4.25381 20.5273 4.52725 20.3086 4.5585 20.0234C4.57412 19.8711 4.44522 18.1328 4.39053 17.8086L4.371 17.6758L4.5585 17.8203C7.19131 19.8203 10.6991 20.2461 13.6991 18.9336C16.0663 17.8945 17.8671 15.918 18.6757 13.4687C19.1757 11.9414 19.2655 10.4101 18.9452 8.74218C18.8866 8.4453 18.8319 8.32811 18.6952 8.19921C18.5546 8.06639 18.2343 8.04296 18.0585 8.15233Z" fill="#001529"/>
</g>
<defs>
<clipPath id="clip0_3499_4951">
<rect width="20" height="20" fill="white" transform="translate(0 0.5)"/>
</clipPath>
</defs>
</svg>
