<svg width="30" height="26" viewBox="0 0 30 26" fill="none" xmlns="http://www.w3.org/2000/svg">
<path d="M6.75995 25.443C6.76653 25.4477 6.77531 25.4453 6.7819 25.45C6.83372 25.4808 6.89166 25.4979 6.95092 25.5C6.98356 25.4999 7.01604 25.4952 7.04751 25.4859L14.9997 23.1688L22.9519 25.4859C22.9834 25.4952 23.0158 25.4999 23.0485 25.5C23.1076 25.4981 23.1654 25.4807 23.2168 25.4492C23.2241 25.4453 23.2321 25.4469 23.2387 25.4422L29.8241 21.1453C29.8921 21.1007 29.9446 21.0336 29.9737 20.9542C30.0028 20.8748 30.0067 20.7875 29.9851 20.7055L26.3382 7.0336C26.3233 6.97666 26.2965 6.92408 26.2597 6.87986C26.2229 6.83564 26.1772 6.80093 26.1261 6.77834C26.0749 6.75576 26.0196 6.74591 25.9643 6.74953C25.909 6.75314 25.8552 6.77014 25.807 6.79922L22.1763 8.97422C22.0968 9.02782 22.0396 9.11199 22.0166 9.20933C21.9935 9.30667 22.0064 9.40974 22.0526 9.49723C22.0987 9.58471 22.1746 9.64992 22.2644 9.67937C22.3543 9.70883 22.4514 9.70027 22.5356 9.65547L25.7617 7.72188L29.2058 20.6328L23.3412 24.4602L21.948 12.5609C21.936 12.4581 21.8861 12.3645 21.8095 12.3008C21.7329 12.2372 21.6357 12.2086 21.5393 12.2215C21.443 12.2343 21.3554 12.2875 21.2957 12.3693C21.2361 12.4512 21.2094 12.5549 21.2214 12.6578L22.6168 24.5789L15.3656 22.4656V20.3328C15.3656 20.2292 15.327 20.1299 15.2584 20.0566C15.1898 19.9833 15.0967 19.9422 14.9997 19.9422C14.9027 19.9422 14.8096 19.9833 14.741 20.0566C14.6724 20.1299 14.6338 20.2292 14.6338 20.3328V22.4656L7.3819 24.5789L8.77726 12.6578C8.78322 12.6069 8.77972 12.5552 8.76697 12.5057C8.75422 12.4562 8.73246 12.4099 8.70294 12.3693C8.67341 12.3288 8.63671 12.2949 8.59491 12.2695C8.55311 12.2442 8.50704 12.2278 8.45934 12.2215C8.41163 12.2151 8.36321 12.2189 8.31686 12.2325C8.2705 12.2461 8.22711 12.2693 8.18916 12.3008C8.15121 12.3324 8.11945 12.3716 8.09569 12.4162C8.07193 12.4608 8.05663 12.51 8.05068 12.5609L6.65824 24.4602L0.793604 20.6336L4.23775 7.72344L7.46385 9.65703C7.548 9.70183 7.64506 9.71039 7.73496 9.68094C7.82485 9.65149 7.90071 9.58628 7.94685 9.49879C7.99298 9.41131 8.00587 9.30824 7.98284 9.21089C7.95981 9.11355 7.90263 9.02938 7.82312 8.97578L4.19165 6.8C4.14355 6.7706 4.08978 6.75334 4.03447 6.74957C3.97916 6.74579 3.92377 6.7556 3.87255 6.77822C3.82134 6.80085 3.77566 6.8357 3.73901 6.8801C3.70237 6.92451 3.67574 6.97728 3.66117 7.03438L0.0143356 20.7063C-0.00772127 20.7883 -0.00391247 20.8758 0.0251754 20.9552C0.0542633 21.0347 0.107017 21.1018 0.175311 21.1461L6.75995 25.443Z" fill="white"/>
<path d="M14.752 18.7563C14.8191 18.8225 14.9071 18.8594 14.9985 18.8598C15.0899 18.8603 15.1782 18.8242 15.2459 18.7586C15.4895 18.5219 21.2195 12.9078 21.2195 7.14062C21.2195 3.41641 18.4881 0.5 15 0.5C11.512 0.5 8.78052 3.41641 8.78052 7.14062C8.78052 12.8078 14.5083 18.5156 14.752 18.7563ZM15 1.28125C18.1281 1.28125 20.4878 3.8 20.4878 7.14062C20.4878 11.9039 16.1027 16.7789 15.0022 17.9273C13.9039 16.7656 9.51222 11.8266 9.51222 7.14062C9.51222 3.8 11.872 1.28125 15 1.28125Z" fill="white"/>
<path d="M18.2927 7.14062C18.2927 5.20234 16.8154 3.625 15 3.625C13.1847 3.625 11.7073 5.20234 11.7073 7.14062C11.7073 9.07891 13.1847 10.6562 15 10.6562C16.8154 10.6562 18.2927 9.07891 18.2927 7.14062ZM15 9.875C13.5878 9.875 12.439 8.64844 12.439 7.14062C12.439 5.63281 13.5878 4.40625 15 4.40625C16.4122 4.40625 17.561 5.63281 17.561 7.14062C17.561 8.64844 16.4122 9.875 15 9.875Z" fill="white"/>
</svg>
