<svg width="26" height="26" viewBox="0 0 26 26" fill="none" xmlns="http://www.w3.org/2000/svg">
<path d="M12.0351 0.0355492C10.1105 0.218361 8.67847 0.624611 7.05855 1.44727C5.13901 2.42735 3.41753 3.97109 2.15815 5.83984C1.63003 6.63203 0.980029 7.96758 0.665186 8.91211C0.416357 9.67383 0.213232 10.5422 0.0913574 11.4004C0.0050293 11.9996 0.0050293 14.0004 0.0913574 14.5996C0.304639 16.0977 0.700732 17.4078 1.32026 18.6621C2.01597 20.084 2.70151 21.0387 3.82886 22.1711C4.95112 23.2883 5.92105 23.984 7.28706 24.6543C8.24175 25.1215 8.8562 25.35 9.82612 25.5938C12.3652 26.2336 14.9144 26.1117 17.3925 25.2332C18.1492 24.9641 19.4593 24.309 20.1347 23.857C21.6531 22.8465 23.0445 21.4195 24.0398 19.8555C24.4054 19.2816 24.9945 18.0629 25.2332 17.3875C26.4265 14.0258 26.2183 10.4203 24.6492 7.2668C24.0195 5.99727 23.3136 4.99688 22.3234 3.97617C21.2265 2.83867 20.15 2.05664 18.7128 1.34571C17.2097 0.604298 15.8082 0.203127 14.1425 0.0507832C13.6246 0.00507927 12.4515 -0.00507545 12.0351 0.0355492ZM14.4371 1.17305C19.0429 1.73672 22.9074 4.94102 24.3445 9.3793C24.9792 11.3547 25.0808 13.5535 24.6238 15.6051C24.2531 17.2859 23.4203 19.0227 22.3132 20.4242C21.9375 20.9016 20.9015 21.9375 20.4242 22.3133C18.6722 23.6945 16.6054 24.5578 14.3812 24.8371C13.2539 24.9793 11.5984 24.893 10.4 24.6238C9.20659 24.3598 7.7898 23.7859 6.75894 23.141C5.71284 22.491 4.38745 21.318 3.68667 20.4242C2.30034 18.6621 1.44722 16.6105 1.16284 14.3813C1.08159 13.7465 1.08159 12.2535 1.16284 11.6035C1.37104 9.91758 2.00073 8.13516 2.88433 6.71328C3.75269 5.3168 5.19995 3.84922 6.56089 2.97578C7.39878 2.44258 8.40425 1.97031 9.39448 1.65039C10.2882 1.36094 11.1464 1.19844 12.3398 1.09688C12.68 1.06641 13.9597 1.11211 14.4371 1.17305Z" fill="white"/>
<path d="M12.7613 4.39764C12.4262 4.56522 12.4414 4.38241 12.4414 8.92733C12.4414 11.6848 12.4566 13.0914 12.4972 13.1879C12.5531 13.3453 18.4133 19.241 18.6773 19.4086C19.0937 19.6676 19.6168 19.2562 19.4746 18.7789C19.4543 18.718 18.1137 17.3367 16.4988 15.7168L13.5586 12.7715V8.79022C13.5586 4.38241 13.5738 4.56014 13.2285 4.39764C13.0203 4.29608 12.9644 4.29608 12.7613 4.39764Z" fill="white"/>
</svg>
