<svg width="26" height="26" viewBox="0 0 26 26" fill="none" xmlns="http://www.w3.org/2000/svg">
<g clip-path="url(#clip0_3499_14376)">
<path d="M2.72168 2.72168L2.59961 2.83887V3.9668V5.08984H1.7207C0.788085 5.08984 0.646483 5.11914 0.55371 5.31934C0.514647 5.40234 0.499999 7.89258 0.499999 14.25C0.499999 23.6543 0.490233 23.2832 0.719726 23.3711C0.827147 23.4102 25.1728 23.4102 25.2803 23.3711C25.5098 23.2832 25.5 23.6543 25.5 14.25C25.5 7.89258 25.4853 5.40234 25.4463 5.31934C25.3535 5.11914 25.2119 5.08984 24.2793 5.08984H23.4004V3.9668V2.83887L23.2783 2.72168C23.1318 2.57031 23.0049 2.56543 21.6865 2.69727C19.9922 2.86816 18.6934 3.10254 17.2725 3.49805C16.0322 3.84473 15.1582 4.15234 13.6494 4.78223L13.0049 5.0459L12.0869 4.66992C9.26953 3.5127 6.99902 2.94629 4.06933 2.67285C2.95605 2.57031 2.86328 2.5752 2.72168 2.72168ZM5.13867 3.625C7.26758 3.89844 9.43554 4.48438 11.6084 5.37305L12.5361 5.75391L12.5508 14.0596L12.5605 22.3652L11.7939 22.0479C9.4209 21.0762 7.08691 20.4854 4.57226 20.2266C4.05469 20.1729 3.58105 20.1289 3.52734 20.1289C3.42969 20.1289 3.42969 20.1289 3.42969 11.7988V3.46387L3.9082 3.49805C4.16699 3.51758 4.72363 3.57617 5.13867 3.625ZM22.5703 11.7939V20.1143L21.9258 20.1729C19.2061 20.417 16.6572 21.0371 14.2061 22.0479L13.4395 22.3652L13.4492 14.0596L13.4639 5.75391L14.3916 5.37305C16.5791 4.47949 18.7471 3.89355 20.8613 3.62988C21.9062 3.50293 21.96 3.49316 22.292 3.48828L22.5703 3.47852V11.7939ZM2.59961 13.2734C2.59961 18.1904 2.61426 20.6562 2.64844 20.7148C2.73633 20.876 2.85351 20.9053 3.72754 20.9834C5.47558 21.1396 6.79883 21.3545 8.16601 21.7109C8.83008 21.8818 10.1289 22.292 10.583 22.4678L10.8271 22.5654L6.08105 22.5703H1.33008V14.2451V5.91992H1.96484H2.59961V13.2734ZM24.6699 14.2451V22.5703H19.9238C17.3164 22.5703 15.1924 22.5605 15.2021 22.5508C15.251 22.502 16.7109 22.0234 17.3457 21.8477C18.9863 21.3887 20.3291 21.1494 22.248 20.9834C23.1562 20.9004 23.2686 20.876 23.3516 20.7148C23.3857 20.6562 23.4004 18.1904 23.4004 13.2734V5.91992H24.0352H24.6699V14.2451Z" fill="white"/>
</g>
<defs>
<clipPath id="clip0_3499_14376">
<rect width="25" height="25" fill="white" transform="translate(0.5 0.5)"/>
</clipPath>
</defs>
</svg>
