<svg width="30" height="30" viewBox="0 0 30 30" fill="none" xmlns="http://www.w3.org/2000/svg">
<path d="M4.95703 0.117188C4.60547 0.257812 4.31836 0.521484 4.14258 0.878906L4.01367 1.14258V15C4.01367 27.7617 4.01953 28.875 4.11328 29.0684C4.27148 29.4316 4.60547 29.748 4.95703 29.8828C5.27344 30 5.35547 30 15 30C24.6445 30 24.7266 30 25.043 29.8828C25.3945 29.748 25.7285 29.4316 25.8867 29.0684C25.9805 28.875 25.9863 27.8965 26.0039 17.2559C26.0098 10.875 26.0039 5.56055 25.9863 5.44922C25.957 5.27344 25.5703 4.86328 23.4199 2.70703C22.0254 1.3125 20.8184 0.128906 20.7305 0.0820312C20.5957 0.0117188 19.4473 0 12.9082 0C5.49023 0.00585938 5.23242 0.0117188 4.95703 0.117188ZM19.9922 2.91211C20.0156 5.0625 20.0215 5.0918 20.4375 5.52539C20.8535 5.95312 20.7832 5.94141 22.998 5.97656L24.9902 6.00586L25.0078 17.2441C25.0195 29.4961 25.0371 28.8164 24.6973 28.9453C24.4863 29.0273 5.51367 29.0273 5.30273 28.9453C4.96289 28.8164 4.98047 29.6953 4.98047 15C4.98047 0.392578 4.96289 1.18945 5.28516 1.05469C5.36719 1.02539 8.4082 1.00195 12.6973 1.00195L19.9746 0.996094L19.9922 2.91211ZM22.6758 3.36914L24.2871 4.98047H22.7871H21.2871L21.1465 4.82812C21.0059 4.68164 21.0059 4.66992 20.9883 3.2168C20.9766 2.41406 20.9883 1.75781 21.0176 1.75781C21.041 1.75781 21.791 2.48438 22.6758 3.36914Z" fill="white"/>
<path d="M8.47268 8.61328C8.13284 8.74804 7.83401 9.01757 7.65823 9.3457C7.56448 9.52148 7.53518 9.68554 7.53518 9.99023C7.52932 10.459 7.64651 10.7461 7.9512 11.0508C8.23831 11.3379 8.47854 11.4434 8.93557 11.4727C9.29885 11.4902 9.38088 11.4785 9.66799 11.3262C10.7637 10.7461 10.752 9.22851 9.64455 8.66015C9.31057 8.49023 8.82424 8.46679 8.47268 8.61328ZM9.3633 9.70312C9.53909 9.90234 9.52737 10.1426 9.33987 10.3359C8.95315 10.7168 8.33206 10.2949 8.56643 9.80859C8.72463 9.46875 9.11135 9.42187 9.3633 9.70312Z" fill="white"/>
<path d="M12.4805 9.99023V10.4883H17.4902H22.5V9.99023V9.49219H17.4902H12.4805V9.99023Z" fill="white"/>
<path d="M8.71288 13.5469C8.19139 13.6406 7.77538 14.0039 7.58788 14.5254C7.28905 15.375 7.83397 16.2891 8.7246 16.4531C9.91991 16.6699 10.8574 15.4746 10.3476 14.3848C10.0547 13.7461 9.416 13.418 8.71288 13.5469ZM9.34569 14.6777C9.73827 15.0645 9.2285 15.6797 8.73632 15.4102C8.55467 15.3164 8.46678 15.0293 8.55467 14.8242C8.64257 14.6074 8.75975 14.5371 9.01171 14.5313C9.14061 14.5313 9.25194 14.5781 9.34569 14.6777Z" fill="white"/>
<path d="M12.5039 14.5488C12.4863 14.5957 12.4805 14.8242 12.4922 15.0645L12.5098 15.498L17.5078 15.5156L22.5 15.5273V15V14.4727H17.5195C13.4004 14.4727 12.5273 14.4844 12.5039 14.5488Z" fill="white"/>
<path d="M8.53126 18.5742C8.08595 18.709 7.67579 19.1602 7.55275 19.6582C7.25392 20.8535 8.5547 21.8965 9.6504 21.334C10.752 20.7773 10.7637 19.2481 9.67384 18.6797C9.34571 18.5098 8.9004 18.4688 8.53126 18.5742ZM9.33985 19.6641C9.53321 19.8574 9.53907 20.0977 9.35157 20.3086C9.09376 20.6133 8.61329 20.4844 8.5254 20.0977C8.41993 19.6231 8.99415 19.3184 9.33985 19.6641Z" fill="white"/>
<path d="M12.4805 20.0098V20.5078H17.4902H22.5V20.0098V19.5117H17.4902H12.4805V20.0098Z" fill="white"/>
<path d="M8.47268 23.6133C8.13284 23.748 7.83401 24.0176 7.65823 24.3457C7.56448 24.5215 7.53518 24.6855 7.53518 24.9902C7.52932 25.459 7.64651 25.7461 7.9512 26.0508C8.23831 26.3379 8.47854 26.4434 8.93557 26.4727C9.29885 26.4902 9.38088 26.4785 9.66799 26.3262C10.7637 25.7461 10.752 24.2285 9.64455 23.6602C9.31057 23.4902 8.82424 23.4668 8.47268 23.6133ZM9.3633 24.7031C9.53909 24.9023 9.52737 25.1426 9.33987 25.3359C8.95315 25.7168 8.33206 25.2949 8.56643 24.8086C8.72463 24.4687 9.11135 24.4219 9.3633 24.7031Z" fill="white"/>
<path d="M12.4805 24.9902V25.4883H17.4902H22.5V24.9902V24.4922H17.4902H12.4805V24.9902Z" fill="white"/>
</svg>
