<svg width="30" height="30" viewBox="0 0 30 30" fill="none" xmlns="http://www.w3.org/2000/svg">
<g clip-path="url(#clip0_3499_14401)">
<path d="M3.41701 0.607618C3.13947 0.732229 2.90158 0.99844 2.82229 1.28164C2.77697 1.42891 2.76565 5.55235 2.77697 15.085L2.79397 28.6787L2.91291 28.9053C2.97522 29.0299 3.13947 29.2055 3.26975 29.3018L3.5133 29.4717L14.8754 29.4887C22.8334 29.5 26.3055 29.4887 26.4528 29.4434C26.736 29.3641 27.0022 29.1262 27.1268 28.8486C27.2287 28.6334 27.2344 28.0953 27.2344 15C27.2344 1.87637 27.2287 1.37227 27.1268 1.15137C27.0022 0.879494 26.8209 0.703909 26.5434 0.584963C26.3565 0.51133 25.099 0.500002 14.9887 0.500002C4.10237 0.500002 3.63225 0.505667 3.41701 0.607618ZM26.2602 1.53086C26.3112 1.58184 26.3281 2.2502 26.3281 4.19297V6.78711H15.0283H3.72854V4.21563C3.72854 2.79961 3.74553 1.60449 3.76252 1.55352C3.79651 1.46856 4.83869 1.46289 14.9944 1.46289C23.6264 1.46289 26.2092 1.47989 26.2602 1.53086ZM26.2602 18.0982L26.2432 28.5654L15.034 28.5824C6.79846 28.5881 3.80783 28.5768 3.75119 28.5314C3.68322 28.4748 3.6719 26.7473 3.6719 18.0529V7.63672H14.9717H26.2715L26.2602 18.0982Z" fill="white"/>
<path d="M14.3939 2.22187C13.3744 2.55605 12.8193 3.67188 13.1932 4.65742C13.3461 5.0709 13.7369 5.4957 14.1391 5.69395C14.4166 5.82988 14.5299 5.85254 14.9434 5.85254C15.3398 5.85254 15.4758 5.82988 15.708 5.7166C17.1637 4.99727 17.1637 3.02051 15.7137 2.3125C15.3738 2.14824 14.7451 2.10859 14.3939 2.22187ZM15.3965 3.23574C15.6854 3.38867 15.9063 3.74551 15.9063 4.0627C15.9063 4.7877 15.0906 5.25781 14.4619 4.90098C13.8162 4.53281 13.8275 3.56426 14.4902 3.23008C14.8074 3.07148 15.085 3.07148 15.3965 3.23574Z" fill="white"/>
<path d="M18.6703 2.53901C18.1266 2.70327 17.8773 3.07709 17.8434 3.77377C17.8094 4.37983 17.9 4.77631 18.1209 5.04819C18.4721 5.47299 18.3305 5.456 21.4004 5.456C22.9127 5.456 24.2154 5.43901 24.3004 5.41069C24.5156 5.35405 24.8555 5.04252 24.9461 4.82162C25.0424 4.60073 25.0537 3.41694 24.9631 3.17905C24.8895 2.9808 24.6572 2.73159 24.4307 2.60698C24.2778 2.52202 23.9549 2.51069 21.542 2.49936C20.0467 2.4937 18.7553 2.51069 18.6703 2.53901ZM24.0852 3.47924C24.2211 3.53022 24.2211 4.54975 24.0852 4.60073C24.0342 4.61772 22.8674 4.63471 21.4854 4.63471C19.2764 4.63471 18.9648 4.62338 18.8856 4.54409C18.8176 4.48178 18.7949 4.34584 18.7949 4.03998C18.7949 3.73412 18.8176 3.59819 18.8856 3.53588C18.9648 3.45659 19.2764 3.44526 21.4854 3.44526C22.8674 3.44526 24.0342 3.46225 24.0852 3.47924Z" fill="white"/>
<path d="M14.4053 10.5877C11.7715 10.769 9.38693 12.2813 8.03888 14.6319C6.38497 17.5205 6.78712 21.3494 9.00744 23.819C10.2649 25.2123 11.8338 26.0846 13.6973 26.4188C14.3317 26.532 15.6684 26.532 16.3027 26.4188C19.6219 25.824 22.1594 23.3772 22.8164 20.143C23.5358 16.6313 21.8252 13.0742 18.642 11.443C17.7188 10.9729 16.6596 10.6613 15.7647 10.6047C15.5494 10.5877 15.2776 10.5707 15.1699 10.5651C15.0623 10.5537 14.7168 10.5651 14.4053 10.5877ZM15.7024 11.511C17.6961 11.6526 19.7238 12.859 20.8623 14.5752C21.508 15.5551 21.8309 16.3877 21.9951 17.5205C22.4426 20.5791 20.8963 23.4961 18.0869 24.9008C16.2008 25.841 13.7992 25.841 11.9131 24.9008C9.78341 23.836 8.3504 21.8932 8.0049 19.5992C7.76701 17.9906 8.09552 16.2971 8.91681 14.9264C9.91935 13.2611 11.6016 12.049 13.482 11.6299C13.9295 11.5336 14.8527 11.4373 15.1133 11.4656C15.1926 11.477 15.4531 11.494 15.7024 11.511Z" fill="white"/>
<path d="M14.1674 13.8331C12.3209 14.1843 10.9729 15.3964 10.4008 17.2089C10.2875 17.5828 10.2705 17.747 10.2705 18.54C10.2705 19.333 10.2875 19.4972 10.4008 19.871C10.6047 20.5111 10.8879 21.0548 11.29 21.5476C11.9131 22.3179 12.6891 22.839 13.6689 23.1335C14.1221 23.2695 14.2693 23.2865 15 23.2865C15.7307 23.2865 15.8779 23.2695 16.3311 23.1335C17.934 22.6464 19.0895 21.491 19.5992 19.871C19.7125 19.4972 19.7295 19.333 19.7295 18.54C19.7295 17.747 19.7125 17.5828 19.5992 17.2089C19.0725 15.538 17.8434 14.3429 16.2178 13.9238C15.6344 13.7708 14.7111 13.7312 14.1674 13.8331ZM15.9969 14.8017C16.9654 15.0566 17.934 15.7873 18.3361 16.5802L18.4438 16.7898L18.1549 16.8917C17.7471 17.039 17.2203 17.5771 17.073 18.0019C16.9258 18.4097 16.9258 18.9138 17.0674 19.299C17.209 19.6955 17.6281 20.1486 18.002 20.3298C18.1549 20.4035 18.2852 20.4828 18.2852 20.5111C18.2852 20.6074 17.9453 21.0378 17.6508 21.3267C16.416 22.5218 14.5865 22.7484 13.0742 21.8988C12.6098 21.6326 11.8395 20.8339 11.5846 20.3412C10.4008 18.0699 11.7092 15.3115 14.2354 14.7507C14.6998 14.6488 15.4758 14.6714 15.9969 14.8017ZM18.8742 17.9283C18.9422 18.3474 18.9025 18.8742 18.7666 19.5199C18.7383 19.6388 18.7326 19.6445 18.523 19.5595C17.7584 19.248 17.7074 18.2738 18.4268 17.8263C18.7043 17.6507 18.8289 17.6847 18.8742 17.9283Z" fill="white"/>
</g>
<defs>
<clipPath id="clip0_3499_14401">
<rect width="29" height="29" fill="white" transform="translate(0.5 0.5)"/>
</clipPath>
</defs>
</svg>
