<svg width="30" height="30" viewBox="0 0 30 30" fill="none" xmlns="http://www.w3.org/2000/svg">
<path d="M3.95508 4.14846C3.32227 4.36526 2.73633 4.85158 2.4668 5.37893C2.15625 5.98244 2.16797 5.69533 2.16797 14.0625C2.16797 22.6348 2.15039 22.1953 2.53711 22.8457C2.7832 23.2559 3.19922 23.625 3.67969 23.8594L4.07227 24.0528L13.5645 24.0703C22.9277 24.0821 23.0625 24.0821 23.4434 23.9649C24.1758 23.7422 24.8145 23.127 25.0723 22.3828C25.1367 22.2071 25.7754 20.1856 26.4961 17.9004L27.8027 13.7403V13.1543C27.8027 12.5977 27.791 12.5449 27.5859 12.1113C27.1172 11.127 26.2324 10.6055 25.043 10.6055H24.668V9.65041C24.668 8.60744 24.5977 8.21486 24.334 7.72268C24.1465 7.37697 23.7422 6.96096 23.4023 6.76174C22.8047 6.41018 22.957 6.4219 18.3691 6.38674C14.373 6.35744 14.1387 6.35158 13.9453 6.24611C13.834 6.18752 13.3711 5.77736 12.9199 5.33205C12.4688 4.8926 11.9824 4.46486 11.8359 4.38283C11.25 4.04299 11.2324 4.04299 7.59375 4.04299C4.57617 4.04885 4.21875 4.05471 3.95508 4.14846ZM11.25 5.12111C11.3613 5.17971 11.8242 5.58986 12.2754 6.02932C13.1133 6.84963 13.3242 7.01369 13.7754 7.18947C14.0098 7.28322 14.4141 7.29494 18.252 7.32424L22.4707 7.35354L22.8047 7.5176C22.9922 7.61135 23.2324 7.79299 23.3496 7.92776C23.6602 8.29104 23.7305 8.60158 23.7305 9.67971V10.6055H15.4805C9.76172 10.6055 7.11914 10.6231 6.87891 10.6699C6.69141 10.7051 6.38672 10.7988 6.21094 10.8867C5.81836 11.0684 5.22656 11.6485 5.05078 12.0117C4.98633 12.1582 4.54688 13.5 4.07227 15C3.60352 16.5 3.19922 17.7891 3.16992 17.8711C3.13477 17.959 3.11719 15.7149 3.12305 12.0703L3.13477 6.12307L3.31055 5.80666C3.49219 5.47854 3.82617 5.19143 4.17773 5.05666C4.31836 5.00393 5.24414 4.99221 7.70508 4.99807C10.8633 5.00979 11.0566 5.01565 11.25 5.12111ZM25.9453 11.7129C26.5605 11.9883 26.9414 12.6387 26.877 13.2949C26.8301 13.7578 24.1875 22.1602 24 22.4414C23.8242 22.711 23.5137 22.9571 23.2207 23.0625C23.0391 23.127 21.3164 23.1387 13.6816 23.1387C4.44141 23.1446 4.36523 23.1387 4.10156 23.0215C3.52734 22.7637 3.16406 22.2422 3.12305 21.6211C3.09961 21.2578 3.1582 21.0469 4.4707 16.8574C5.37891 13.9746 5.89453 12.3985 6 12.2461C6.1875 11.9649 6.5332 11.7246 6.90234 11.625C7.11914 11.5664 9.09961 11.5547 16.4062 11.5606L25.6348 11.5723L25.9453 11.7129Z" fill="white"/>
</svg>
