<svg width="28" height="28" viewBox="0 0 28 28" fill="none" xmlns="http://www.w3.org/2000/svg">
<path d="M13.2617 4.10701C11.632 4.34764 10.3305 5.46326 9.8328 7.05467C9.65233 7.64529 9.65233 8.75545 9.8328 9.35154C10.3906 11.1398 11.9711 12.3047 13.8469 12.3101C14.5687 12.3101 15.0117 12.2117 15.668 11.8945C16.543 11.4734 17.1336 10.8828 17.582 9.99685C17.9156 9.33514 18.0086 8.85389 17.9812 8.02264C17.9594 7.4867 17.9265 7.26795 17.8062 6.91795C17.593 6.29451 17.2703 5.77498 16.7945 5.2992C16.1219 4.62654 15.3289 4.23826 14.3664 4.10701C13.8851 4.04139 13.732 4.04139 13.2617 4.10701ZM14.875 5.1406C15.8594 5.4742 16.6414 6.25623 16.9586 7.22967C17.1281 7.7492 17.1445 8.61873 16.9859 9.0781C16.5867 10.2594 15.7773 11.025 14.6125 11.3258C13.557 11.5937 12.4414 11.3039 11.6156 10.5328C11.1836 10.1336 10.9375 9.75076 10.7351 9.17654C10.5492 8.64607 10.5383 7.81482 10.7133 7.27342C11.0578 6.1906 12.0805 5.25545 13.1523 5.0367C13.5953 4.9492 14.4648 4.99842 14.875 5.1406Z" fill="white"/>
<path d="M21.7656 6.97264C20.661 7.22421 19.6985 8.10467 19.3539 9.18749C19.2172 9.60311 19.1899 10.489 19.2992 10.8828C19.4469 11.4187 19.7422 11.9219 20.1414 12.332C20.5899 12.7805 20.8906 12.9719 21.443 13.1578C22.2688 13.4367 23.1 13.3711 23.9313 12.9664C26.1078 11.889 26.3102 8.84842 24.2977 7.4703C23.5758 6.97811 22.5914 6.78671 21.7656 6.97264ZM23.1383 7.9078C23.5539 8.03358 23.8383 8.21405 24.1664 8.55858C25.2547 9.70702 24.8828 11.5281 23.4227 12.2062C22.4711 12.6547 21.2406 12.3484 20.6063 11.5117C20.2617 11.0633 20.1578 10.7242 20.1524 10.0898C20.1524 9.58671 20.1688 9.51561 20.3274 9.17108C20.6117 8.56952 21.1531 8.09921 21.793 7.89686C22.1047 7.79842 22.7883 7.80389 23.1383 7.9078Z" fill="white"/>
<path d="M4.87266 7.19689C4.05234 7.37189 3.30859 7.87502 2.84922 8.55861C1.98516 9.84923 2.16016 11.5227 3.26484 12.611C3.83359 13.1742 4.76328 13.5625 5.55078 13.5625C6.9125 13.5625 8.225 12.5891 8.64609 11.2656C8.82109 10.7297 8.81016 9.89845 8.62422 9.36252C8.42734 8.79923 8.18125 8.41095 7.75469 8.01173C6.97813 7.27345 5.90625 6.97267 4.87266 7.19689ZM6.50781 8.24142C7.16406 8.55314 7.56875 9.01798 7.77656 9.70158C8.10469 10.7735 7.56875 11.9383 6.52422 12.4305C5.81875 12.7586 4.87266 12.6875 4.24375 12.25C3.91016 12.0258 3.56016 11.6266 3.41797 11.3039C2.84922 10.057 3.47266 8.6133 4.79063 8.14845C5.04766 8.06095 5.21719 8.03908 5.63281 8.05548C6.08125 8.06642 6.20156 8.09377 6.50781 8.24142Z" fill="white"/>
<path d="M13.3438 12.8898C11.6703 13.0539 10.068 13.7484 8.89766 14.8203L8.52578 15.1648L7.99531 14.9133C7.35 14.607 6.90703 14.4703 6.26172 14.3828C3.69687 14.0219 1.13203 15.6078 0.289844 18.0742C0.065625 18.7305 0 19.2828 0 20.4531C0 21.5305 0 21.5359 0.153125 21.8258C0.2625 22.0391 0.377344 22.1648 0.574219 22.2852L0.836719 22.4492L3.60938 22.4656L6.3875 22.482L6.42031 22.7008C6.46953 23.018 6.62812 23.3023 6.89062 23.5375C7.35547 23.9586 6.77031 23.9258 14 23.9258C21.2297 23.9258 20.6445 23.9586 21.1094 23.5375C21.4211 23.2586 21.5578 22.9633 21.5906 22.5203L21.618 22.1539L24.3578 22.1375C26.3047 22.1266 27.1414 22.0992 27.2398 22.0555C27.4805 21.9516 27.7922 21.6453 27.8961 21.4102C27.9836 21.2242 28 21.0383 28 20.1195C28 18.9547 27.9344 18.4023 27.7102 17.7461C27.1414 16.0781 25.818 14.7875 24.1445 14.257C22.6297 13.7812 20.8633 13.9945 19.5562 14.8039L19.2883 14.9734L18.9492 14.6836C17.4016 13.3711 15.2961 12.693 13.3438 12.8898ZM15.1266 13.8633C17.8609 14.3336 20.0047 16.3953 20.568 19.0969C20.6609 19.5562 20.6883 19.9062 20.7047 21.0164C20.732 22.4875 20.7047 22.7281 20.4695 22.9086C20.3273 23.0234 20.3 23.0234 14 23.0234C7.73828 23.0234 7.66719 23.0234 7.53047 22.9141C7.29531 22.7281 7.27344 22.5531 7.29531 21.0547C7.31172 19.8844 7.33359 19.5672 7.43203 19.0969C7.99531 16.4172 10.1227 14.35 12.8242 13.8687C13.4148 13.7648 14.5305 13.7594 15.1266 13.8633ZM23.6195 15.0445C25.2492 15.4602 26.5398 16.7562 26.9609 18.3969C27.0539 18.7633 27.0703 19.0039 27.0703 19.9609C27.0703 20.7648 27.0539 21.1039 27.0047 21.1531C26.9555 21.2023 26.2773 21.2187 24.2758 21.2187H21.618L21.5852 20.2727C21.5359 18.9055 21.3281 18.0687 20.7484 16.9477C20.6062 16.6687 20.3602 16.2641 20.2016 16.0453L19.9117 15.6461L20.0922 15.5312C21.0547 14.9406 22.4492 14.7492 23.6195 15.0445ZM6.68281 15.3891C7.14766 15.5039 7.875 15.8156 7.875 15.8922C7.875 15.9086 7.77109 16.0672 7.65078 16.2531C7.32812 16.7234 6.86328 17.7187 6.69922 18.293C6.48594 19.0258 6.39844 19.7258 6.39844 20.6828V21.5469H3.72422C1.44375 21.5469 1.04453 21.5359 0.984375 21.4648C0.935156 21.4047 0.924219 21.0656 0.940625 20.1414C0.9625 19.0258 0.978906 18.8508 1.08828 18.5117C1.62422 16.882 2.91484 15.7008 4.56641 15.3398C5.12969 15.2141 6.08672 15.2359 6.68281 15.3891Z" fill="white"/>
</svg>
