<svg width="28" height="28" viewBox="0 0 28 28" fill="none" xmlns="http://www.w3.org/2000/svg">
<g clip-path="url(#clip0_3499_14384)">
<path d="M8.41016 2.63574C5.40957 3.80644 2.63574 4.8875 2.25078 5.03516C1.6707 5.26191 1.53887 5.33047 1.47559 5.45703C1.40703 5.58887 1.39648 6.68574 1.39648 14C1.39648 21.3195 1.40703 22.4111 1.47559 22.543C1.53359 22.659 1.64961 22.7275 1.96074 22.8488C2.1875 22.9385 4.9666 24.0195 8.14121 25.2535C11.3158 26.4875 13.9525 27.5 14 27.5C14.0475 27.5 16.6842 26.4875 19.8588 25.2535C23.0334 24.0195 25.8125 22.9385 26.0393 22.8488C26.3504 22.7275 26.4664 22.659 26.5244 22.543C26.593 22.4111 26.6035 21.3195 26.6035 14C26.6035 6.68047 26.593 5.58887 26.5244 5.45703C26.4664 5.34101 26.3504 5.27246 26.0393 5.15117C25.8125 5.06152 23.0281 3.98047 19.8535 2.74648C16.6789 1.5125 14.0369 0.5 13.9736 0.505274C13.9156 0.505274 11.4107 1.46504 8.41016 2.63574ZM19.4158 3.5375C22.3689 4.68184 24.8 5.6416 24.8211 5.65742C24.8422 5.67851 23.7822 6.11094 22.4639 6.62246L20.0697 7.55586L14.6381 5.44121C11.648 4.28105 9.21172 3.31602 9.22227 3.30547C9.25918 3.26855 13.9156 1.45449 13.9842 1.45449C14.0158 1.44922 16.4627 2.38789 19.4158 3.5375ZM13.4727 5.94746C18.2029 7.79316 18.8094 8.04102 18.6934 8.08848C18.224 8.29414 14.0686 9.88672 14.0053 9.88672C13.9578 9.88672 11.4951 8.94277 8.52617 7.79316C4.86113 6.36406 3.15781 5.67851 3.20527 5.64688C3.24219 5.62051 4.29688 5.20391 5.54141 4.71348C7.13398 4.09121 7.85117 3.83281 7.96191 3.84863C8.05156 3.85918 10.5301 4.80313 13.4727 5.94746ZM8.0041 8.55254L13.5254 10.6988V18.5404V26.3873L13.0666 26.2027C12.8082 26.1078 10.2875 25.127 7.46094 24.0248L2.31934 22.0262L2.30352 14.1846C2.29297 6.72793 2.29824 6.34297 2.38262 6.37461C2.43535 6.39043 4.96133 7.37129 8.0041 8.55254ZM25.6965 14.1898L25.6807 22.0262L20.5391 24.0248C17.7125 25.127 15.1918 26.1078 14.9387 26.2027L14.4746 26.3873V18.5404V10.6988L20.0539 8.52617C23.1178 7.33438 25.6438 6.35879 25.6701 6.35352C25.6912 6.35352 25.7018 9.88144 25.6965 14.1898Z" fill="white"/>
</g>
<defs>
<clipPath id="clip0_3499_14384">
<rect width="27" height="27" fill="white" transform="translate(0.5 0.5)"/>
</clipPath>
</defs>
</svg>
