<svg width="12" height="13" viewBox="0 0 12 13" fill="none" xmlns="http://www.w3.org/2000/svg">
<path d="M11.8534 11.6465L8.4409 8.234C9.1019 7.41751 9.49989 6.38 9.49989 5.25001C9.49989 2.63101 7.3689 0.5 4.74993 0.5C2.13096 0.5 0 2.63098 0 5.24998C0 7.86898 2.13098 9.99999 4.74996 9.99999C5.87994 9.99999 6.91743 9.602 7.73392 8.94099L11.1464 12.3535C11.2439 12.451 11.3719 12.5 11.4999 12.5C11.6279 12.5 11.7559 12.451 11.8534 12.3535C12.0489 12.158 12.0489 11.842 11.8534 11.6465ZM4.74996 8.99998C2.68197 8.99998 0.999997 7.31799 0.999997 5.24998C0.999997 3.18198 2.68197 1.49998 4.74996 1.49998C6.81794 1.49998 8.49991 3.18198 8.49991 5.24998C8.49991 7.31799 6.81792 8.99998 4.74996 8.99998Z" fill="#7F7F7F"/>
</svg>
