<svg width="16" height="17" viewBox="0 0 16 17" fill="none" xmlns="http://www.w3.org/2000/svg">
<path d="M7.96903 2.12158C7.78375 2.20787 7.71014 2.27894 5.02988 4.95666C3.51716 6.46684 2.24303 7.76128 2.1948 7.83235C2.0019 8.11916 1.94607 8.55571 2.05521 8.88567C2.22018 9.37553 2.61105 9.66487 3.17198 9.71056L3.37249 9.72832L3.3801 11.7994C3.38772 13.8325 3.39026 13.8731 3.44102 14.0101C3.6263 14.4975 3.91565 14.7893 4.36236 14.9416C4.52734 14.9975 4.55272 14.9975 5.76086 15C6.94616 15 6.99439 14.9975 7.07561 14.9492C7.12129 14.9213 7.17967 14.8629 7.20759 14.8173C7.25582 14.736 7.25835 14.6853 7.25835 13.1218C7.25835 12.0228 7.26851 11.4771 7.28627 11.4086C7.32942 11.2563 7.44871 11.1014 7.58323 11.0228L7.70253 10.9517H8.50457H9.30662L9.43099 11.0278C9.57058 11.1141 9.70256 11.3096 9.73048 11.4644C9.7381 11.5177 9.74571 12.2715 9.74571 13.1421C9.74571 14.8553 9.74064 14.7893 9.88531 14.9239L9.95384 14.9873L11.1747 14.9949C11.992 15 12.4412 14.9924 12.53 14.9746C12.8803 14.901 13.2864 14.5914 13.4463 14.2766C13.624 13.9213 13.6138 14.066 13.624 11.7867L13.6316 9.72579L13.8397 9.70802C14.3423 9.66487 14.6849 9.44152 14.8879 9.02273C14.9742 8.85013 14.9742 8.84252 14.9742 8.50241C14.9742 8.15977 14.9742 8.15723 14.8829 7.96941C14.7966 7.78412 14.728 7.71306 12.0097 4.99473C9.29139 2.2764 9.22032 2.20787 9.03504 2.12158C8.84722 2.0302 8.84468 2.0302 8.50203 2.0302C8.15939 2.0302 8.15685 2.0302 7.96903 2.12158ZM8.67209 2.81702C8.76346 2.85256 14.124 8.20799 14.1747 8.31459C14.2636 8.50241 14.1976 8.74099 14.0275 8.85267C13.9285 8.91866 13.9057 8.9212 13.5021 8.93389C13.0453 8.94658 12.992 8.96181 12.9006 9.10395C12.8574 9.1674 12.8549 9.32984 12.8422 11.4593C12.8295 13.5482 12.827 13.7512 12.7864 13.835C12.7179 13.9797 12.6189 14.0837 12.4767 14.1573L12.3473 14.2259L11.4412 14.2335L10.5351 14.2436L10.5275 12.7741C10.5198 11.3375 10.5173 11.3045 10.4615 11.1421C10.3117 10.703 10.0198 10.3933 9.59343 10.2309C9.43099 10.1674 9.41576 10.1674 8.5731 10.1573C7.85481 10.1497 7.69237 10.1547 7.55785 10.1877C7.03246 10.3222 6.61875 10.7461 6.50707 11.2664C6.47915 11.3984 6.47154 11.7309 6.47154 12.8375V14.2436L5.56543 14.2335L4.65678 14.2259L4.51718 14.1497C4.34713 14.0558 4.2253 13.901 4.18977 13.7309C4.172 13.6421 4.16185 12.8959 4.16185 11.4009C4.16185 9.26385 4.15931 9.19786 4.11108 9.11917C4.01717 8.96435 3.96641 8.94912 3.50193 8.93389C3.09837 8.9212 3.07553 8.91866 2.97654 8.85267C2.80649 8.74099 2.7405 8.50241 2.82933 8.31459C2.87756 8.2156 8.23807 2.85256 8.32437 2.81956C8.41066 2.78656 8.58325 2.78656 8.67209 2.81702Z" fill="#7F7F7F"/>
</svg>
